{
    "asset": {
        "generator": "COLLADA2GLTF",
        "version": "2.0"
    },
    "scenes": [
        {
            "nodes": [
                0
            ]
        }
    ],
    "scene": 0,
    "nodes": [
        {
            "children": [
                6,
                1
            ],
            "matrix": [
                1.0,
                0.0,
                0.0,
                0.0,
                0.0,
                0.0,
                -1.0,
                0.0,
                0.0,
                1.0,
                0.0,
                0.0,
                0.0,
                0.0,
                0.0,
                1.0
            ],
            "name": "Z_UP"
        },
        {
            "mesh": 0,
            "children": [
                4,
                2
            ],
            "matrix": [
                4.4896641959724089e-11,
                -1.0,
                0.0,
                0.0,
                -1.3311316138242549e-7,
                -5.976333603581322e-18,
                1.0,
                0.0,
                -1.0,
                -4.4896641959724089e-11,
                -1.3311316138242549e-7,
                0.0,
                0.0599355697631836,
                -1.6539130210876465,
                2.295454978942871,
                1.0
            ],
            "name": "Cesium_Air"
        },
        {
            "children": [
                3
            ],
            "matrix": [
                1.0,
                -1.2300173696960272e-14,
                -9.920957388942498e-10,
                0.0,
                1.2300173696960272e-14,
                1.0,
                0.0,
                0.0,
                9.920957388942498e-10,
                -1.2202950085153535e-23,
                1.0,
                0.0,
                1.9191499948501588,
                0.6840611100196838,
                -3.409319877624512,
                1.0
            ]
        },
        {
            "mesh": 1,
            "rotation": [
                -4.3527811910415439e-10,
                -0.0,
                -0.0,
                -1.0
            ],
            "name": "Prop__2_"
        },
        {
            "children": [
                5
            ],
            "matrix": [
                1.0,
                -1.2300173696960272e-14,
                -9.920957388942498e-10,
                0.0,
                1.2300173696960272e-14,
                1.0,
                0.0,
                0.0,
                9.920957388942498e-10,
                -1.2202950085153535e-23,
                1.0,
                0.0,
                1.9191499948501588,
                0.6840611100196838,
                3.409319877624512,
                1.0
            ]
        },
        {
            "mesh": 1,
            "rotation": [
                -4.3527811910415439e-10,
                -0.0,
                -0.0,
                -1.0
            ],
            "name": "Prop"
        },
        {
            "matrix": [
                0.7276337742805481,
                -0.6858804225921631,
                -0.010816778987646105,
                0.0,
                0.3124685287475586,
                0.31737008690834048,
                0.8953432440757752,
                0.0,
                -0.6106655597686768,
                -0.6548619866371155,
                0.44524529576301577,
                0.0,
                -6.447703838348389,
                -9.135045051574709,
                7.639119625091553,
                1.0
            ],
            "camera": 0,
            "name": "Camera"
        }
    ],
    "cameras": [
        {
            "perspective": {
                "yfov": 0.4823747575283051,
                "zfar": 100.0,
                "znear": 0.10000000149011612
            },
            "type": "perspective",
            "name": "Camera"
        }
    ],
    "meshes": [
        {
            "primitives": [
                {
                    "attributes": {
                        "NORMAL": 1,
                        "POSITION": 2,
                        "TEXCOORD_0": 3
                    },
                    "indices": 0,
                    "mode": 4,
                    "material": 0
                }
            ],
            "name": "Cesium_Air"
        },
        {
            "primitives": [
                {
                    "attributes": {
                        "NORMAL": 5,
                        "POSITION": 6,
                        "TEXCOORD_0": 7
                    },
                    "indices": 4,
                    "mode": 4,
                    "material": 1
                },
                {
                    "attributes": {
                        "NORMAL": 9,
                        "POSITION": 10,
                        "TEXCOORD_0": 11
                    },
                    "indices": 8,
                    "mode": 4,
                    "material": 2
                }
            ],
            "name": "Prop"
        }
    ],
    "animations": [
        {
            "channels": [
                {
                    "sampler": 0,
                    "target": {
                        "node": 5,
                        "path": "rotation"
                    }
                },
                {
                    "sampler": 1,
                    "target": {
                        "node": 3,
                        "path": "rotation"
                    }
                }
            ],
            "samplers": [
                {
                    "input": 12,
                    "interpolation": "LINEAR",
                    "output": 13
                },
                {
                    "input": 14,
                    "interpolation": "LINEAR",
                    "output": 15
                }
            ]
        }
    ],
    "accessors": [
        {
            "bufferView": 0,
            "byteOffset": 0,
            "componentType": 5123,
            "count": 17088,
            "max": [
                3871
            ],
            "min": [
                0
            ],
            "type": "SCALAR"
        },
        {
            "bufferView": 1,
            "byteOffset": 0,
            "componentType": 5126,
            "count": 3872,
            "max": [
                0.9999932050704956,
                0.9999994039535524,
                1.0
            ],
            "min": [
                -0.9966682195663452,
                -0.9999974370002748,
                -1.0
            ],
            "type": "VEC3"
        },
        {
            "bufferView": 1,
            "byteOffset": 46464,
            "componentType": 5126,
            "count": 3872,
            "max": [
                8.00469970703125,
                5.464059829711914,
                12.86829948425293
            ],
            "min": [
                -13.396899223327637,
                -2.2960000038146979,
                -12.86829948425293
            ],
            "type": "VEC3"
        },
        {
            "bufferView": 2,
            "byteOffset": 0,
            "componentType": 5126,
            "count": 3872,
            "max": [
                0.9526770114898682,
                0.975000023841858
            ],
            "min": [
                0.024999970570206647,
                0.02499997615814209
            ],
            "type": "VEC2"
        },
        {
            "bufferView": 0,
            "byteOffset": 34176,
            "componentType": 5123,
            "count": 360,
            "max": [
                77
            ],
            "min": [
                0
            ],
            "type": "SCALAR"
        },
        {
            "bufferView": 1,
            "byteOffset": 92928,
            "componentType": 5126,
            "count": 78,
            "max": [
                0.9999539256095886,
                0.989358127117157,
                0.989396333694458
            ],
            "min": [
                0.13837210834026338,
                -0.9894165992736816,
                -0.9893741011619568
            ],
            "type": "VEC3"
        },
        {
            "bufferView": 1,
            "byteOffset": 93864,
            "componentType": 5126,
            "count": 78,
            "max": [
                0.5895140171051025,
                0.25182101130485537,
                0.25182101130485537
            ],
            "min": [
                -0.000022888199964654633,
                -0.25182101130485537,
                -0.25182101130485537
            ],
            "type": "VEC3"
        },
        {
            "bufferView": 2,
            "byteOffset": 30976,
            "componentType": 5126,
            "count": 78,
            "max": [
                0.5661399960517883,
                0.585023045539856
            ],
            "min": [
                0.5124710202217102,
                0.5582680106163025
            ],
            "type": "VEC2"
        },
        {
            "bufferView": 0,
            "byteOffset": 34896,
            "componentType": 5123,
            "count": 72,
            "max": [
                24
            ],
            "min": [
                0
            ],
            "type": "SCALAR"
        },
        {
            "bufferView": 1,
            "byteOffset": 94800,
            "componentType": 5126,
            "count": 25,
            "max": [
                1.0,
                0.0,
                0.0
            ],
            "min": [
                1.0,
                0.0,
                0.0
            ],
            "type": "VEC3"
        },
        {
            "bufferView": 1,
            "byteOffset": 95100,
            "componentType": 5126,
            "count": 25,
            "max": [
                0.08199869841337204,
                1.5962599515914918,
                1.5962499380111697
            ],
            "min": [
                0.08199869841337204,
                -1.596229910850525,
                -1.5962499380111697
            ],
            "type": "VEC3"
        },
        {
            "bufferView": 2,
            "byteOffset": 31600,
            "componentType": 5126,
            "count": 25,
            "max": [
                0.8944259881973267,
                0.8944259881973267
            ],
            "min": [
                0.10557399690151216,
                0.10557401180267334
            ],
            "type": "VEC2"
        },
        {
            "bufferView": 3,
            "byteOffset": 0,
            "componentType": 5126,
            "count": 8,
            "max": [
                1.25
            ],
            "min": [
                0.0
            ],
            "type": "SCALAR"
        },
        {
            "bufferView": 4,
            "byteOffset": 0,
            "componentType": 5126,
            "count": 8,
            "max": [
                0.9987167119979858,
                0.0,
                0.0,
                0.9948692321777344
            ],
            "min": [
                -0.0,
                0.0,
                0.0,
                -1.0
            ],
            "type": "VEC4"
        },
        {
            "bufferView": 3,
            "byteOffset": 32,
            "componentType": 5126,
            "count": 8,
            "max": [
                1.25
            ],
            "min": [
                0.0
            ],
            "type": "SCALAR"
        },
        {
            "bufferView": 4,
            "byteOffset": 128,
            "componentType": 5126,
            "count": 8,
            "max": [
                0.9987167119979858,
                0.0,
                0.0,
                0.9948692321777344
            ],
            "min": [
                -0.0,
                0.0,
                0.0,
                -1.0
            ],
            "type": "VEC4"
        }
    ],
    "materials": [
        {
            "pbrMetallicRoughness": {
                "baseColorTexture": {
                    "index": 0
                },
                "metallicFactor": 0.0
            },
            "emissiveFactor": [
                0.0,
                0.0,
                0.0
            ],
            "name": "cesium_air-effect"
        },
        {
            "pbrMetallicRoughness": {
                "baseColorTexture": {
                    "index": 0
                },
                "metallicFactor": 0.0
            },
            "emissiveFactor": [
                0.0,
                0.0,
                0.0
            ],
            "name": "cesium_air-effect"
        },
        {
            "pbrMetallicRoughness": {
                "baseColorTexture": {
                    "index": 1
                },
                "metallicFactor": 0.0
            },
            "emissiveFactor": [
                0.0,
                0.0,
                0.0
            ],
            "name": "prop-effect"
        }
    ],
    "textures": [
        {
            "sampler": 0,
            "source": 0
        },
        {
            "sampler": 0,
            "source": 1
        }
    ],
    "images": [
        {
            "uri": "data:image/png;base64,"
        },
        {
            "uri": "data:image/png;base64,"
        }
    ],
    "samplers": [
        {
            "magFilter": 9729,
            "minFilter": 9986,
            "wrapS": 10497,
            "wrapT": 10497
        }
    ],
    "bufferViews": [
        {
            "buffer": 0,
            "byteOffset": 127520,
            "byteLength": 35040,
            "target": 34963
        },
        {
            "buffer": 0,
            "byteOffset": 256,
            "byteLength": 95400,
            "byteStride": 12,
            "target": 34962
        },
        {
            "buffer": 0,
            "byteOffset": 95656,
            "byteLength": 31800,
            "byteStride": 8,
            "target": 34962
        },
        {
            "buffer": 0,
            "byteOffset": 127456,
            "byteLength": 64
        },
        {
            "buffer": 0,
            "byteOffset": 0,
            "byteLength": 256
        }
    ],
    "buffers": [
        {
            "byteLength": 162560,
            "uri": "data:application/octet-stream;base64,"
        }
    ]
}
