{
    "accessors": {
        "accessor_21": {
            "bufferView": "bufferView_104",
            "byteOffset": 12528,
            "byteStride": 0,
            "componentType": 5123,
            "count": 2304,
            "type": "SCALAR"
        },
        "accessor_23": {
            "bufferView": "bufferView_105",
            "byteOffset": 200448,
            "byteStride": 12,
            "componentType": 5126,
            "count": 2304,
            "max": [
                0.4277999997138977,
                0.4277999997138977,
                1.058000087738037
            ],
            "min": [
                -0.4277999997138977,
                -0.4277999997138977,
                -1.058000087738037
            ],
            "type": "VEC3"
        },
        "accessor_25": {
            "bufferView": "bufferView_105",
            "byteOffset": 228096,
            "byteStride": 12,
            "componentType": 5126,
            "count": 2304,
            "max": [
                0.983955979347229,
                0.983955979347229,
                1
            ],
            "min": [
                -0.983955979347229,
                -0.983955979347229,
                -1
            ],
            "type": "VEC3"
        },
        "accessor_27": {
            "bufferView": "bufferView_105",
            "byteOffset": 255744,
            "byteStride": 8,
            "componentType": 5126,
            "count": 2304,
            "max": [
                0.9936569929122925,
                0.9895756244659424
            ],
            "min": [
                0.6050930023193359,
                0.00905001163482666
            ],
            "type": "VEC2"
        },
        "accessor_82": {
            "bufferView": "bufferView_104",
            "byteOffset": 0,
            "byteStride": 0,
            "componentType": 5123,
            "count": 5232,
            "type": "SCALAR"
        },
        "accessor_85": {
            "bufferView": "bufferView_104",
            "byteOffset": 10464,
            "byteStride": 0,
            "componentType": 5123,
            "count": 168,
            "type": "SCALAR"
        },
        "accessor_88": {
            "bufferView": "bufferView_104",
            "byteOffset": 10800,
            "byteStride": 0,
            "componentType": 5123,
            "count": 864,
            "type": "SCALAR"
        },
        "accessor_90": {
            "bufferView": "bufferView_105",
            "byteOffset": 0,
            "byteStride": 12,
            "componentType": 5126,
            "count": 6264,
            "max": [
                2.438000202178955,
                2.5843698978424072,
                1.3960000276565552
            ],
            "min": [
                -2.4309098720550537,
                0.2667999863624573,
                -1.3960000276565552
            ],
            "type": "VEC3"
        },
        "accessor_92": {
            "bufferView": "bufferView_105",
            "byteOffset": 75168,
            "byteStride": 12,
            "componentType": 5126,
            "count": 6264,
            "max": [
                1,
                1,
                1
            ],
            "min": [
                -1,
                -1,
                -1
            ],
            "type": "VEC3"
        },
        "accessor_94": {
            "bufferView": "bufferView_105",
            "byteOffset": 150336,
            "byteStride": 8,
            "componentType": 5126,
            "count": 6264,
            "max": [
                0.8964579701423645,
                0.997245192527771
            ],
            "min": [
                0.0029563899151980877,
                0.015672028064727783
            ],
            "type": "VEC2"
        },
        "animAccessor_0": {
            "bufferView": "bufferView_103",
            "byteOffset": 0,
            "componentType": 5126,
            "count": 31,
            "type": "SCALAR"
        },
        "animAccessor_1": {
            "bufferView": "bufferView_103",
            "byteOffset": 124,
            "componentType": 5126,
            "count": 31,
            "type": "VEC4"
        }
    },
    "animations": {
        "animation_0": {
            "channels": [
                {
                    "sampler": "animation_0_rotation_sampler",
                    "target": {
                        "id": "Wheels",
                        "path": "rotation"
                    }
                }
            ],
            "parameters": {
                "TIME": "animAccessor_0",
                "rotation": "animAccessor_1"
            },
            "samplers": {
                "animation_0_rotation_sampler": {
                    "input": "TIME",
                    "interpolation": "LINEAR",
                    "output": "rotation"
                }
            }
        },
        "animation_1": {
            "channels": [
                {
                    "sampler": "animation_1_rotation_sampler",
                    "target": {
                        "id": "Wheels__2_",
                        "path": "rotation"
                    }
                }
            ],
            "parameters": {
                "TIME": "animAccessor_0",
                "rotation": "animAccessor_1"
            },
            "samplers": {
                "animation_1_rotation_sampler": {
                    "input": "TIME",
                    "interpolation": "LINEAR",
                    "output": "rotation"
                }
            }
        }
    },
    "asset": {
        "generator": "collada2gltf@",
        "premultipliedAlpha": true,
        "profile": {
            "api": "WebGL",
            "version": "1.0.2"
        },
        "version": "1.0"
    },
    "bufferViews": {
        "bufferView_103": {
            "buffer": "truck_plus_iris_2",
            "byteLength": 620,
            "byteOffset": 0
        },
        "bufferView_104": {
            "buffer": "truck_plus_iris_2",
            "byteLength": 17136,
            "byteOffset": 620,
            "target": 34963
        },
        "bufferView_105": {
            "buffer": "truck_plus_iris_2",
            "byteLength": 274176,
            "byteOffset": 17756,
            "target": 34962
        }
    },
    "buffers": {
        "truck_plus_iris_2": {
            "byteLength": 291932,
            "type": "arraybuffer",
            "uri": "data:application/octet-stream;base64,"
        }
    },
    "images": {
        "ubpsTruck_png": {
            "name": "ubpsTruck_png",
            "uri": "data:image/jpeg;base64,"
        }
    },
    "materials": {
        "glass-effect": {
            "name": "glass",
            "technique": "technique0",
            "values": {
                "ambient": [
                    0,
                    0,
                    0,
                    1
                ],
                "diffuse": [
                    0,
                    0.04050629958510399,
                    0.021240700036287308,
                    1
                ],
                "emission": [
                    0,
                    0,
                    0,
                    1
                ],
                "shininess": 256,
                "specular": [
                    0.32500001788139343,
                    0.32500001788139343,
                    0.32500001788139343,
                    1
                ]
            }
        },
        "truck-effect": {
            "name": "truck",
            "technique": "technique1",
            "values": {
                "ambient": [
                    0,
                    0,
                    0,
                    1
                ],
                "diffuse": "texture_ubpsTruck_png",
                "emission": [
                    0,
                    0,
                    0,
                    1
                ],
                "shininess": 256,
                "specular": [
                    0.019999999552965164,
                    0.019999999552965164,
                    0.019999999552965164,
                    1
                ]
            }
        },
        "wheels-effect": {
            "name": "wheels",
            "technique": "technique1",
            "values": {
                "ambient": [
                    0,
                    0,
                    0,
                    1
                ],
                "diffuse": "texture_ubpsTruck_png",
                "emission": [
                    0,
                    0,
                    0,
                    1
                ],
                "shininess": 256,
                "specular": [
                    0.019999999552965164,
                    0.019999999552965164,
                    0.019999999552965164,
                    1
                ]
            }
        },
        "window_trim-effect": {
            "name": "window_trim",
            "technique": "technique0",
            "values": {
                "ambient": [
                    0,
                    0,
                    0,
                    1
                ],
                "diffuse": [
                    0.06400000303983688,
                    0.06400000303983688,
                    0.06400000303983688,
                    1
                ],
                "emission": [
                    0,
                    0,
                    0,
                    1
                ],
                "shininess": 256,
                "specular": [
                    0.019999999552965164,
                    0.019999999552965164,
                    0.019999999552965164,
                    1
                ]
            }
        }
    },
    "meshes": {
        "Cesium_Milk_Truck-mesh": {
            "name": "Cesium_Milk_Truck",
            "primitives": [
                {
                    "attributes": {
                        "NORMAL": "accessor_92",
                        "POSITION": "accessor_90",
                        "TEXCOORD_0": "accessor_94"
                    },
                    "indices": "accessor_82",
                    "material": "truck-effect",
                    "mode": 4
                },
                {
                    "attributes": {
                        "NORMAL": "accessor_92",
                        "POSITION": "accessor_90",
                        "TEXCOORD_0": "accessor_94"
                    },
                    "indices": "accessor_85",
                    "material": "glass-effect",
                    "mode": 4
                },
                {
                    "attributes": {
                        "NORMAL": "accessor_92",
                        "POSITION": "accessor_90",
                        "TEXCOORD_0": "accessor_94"
                    },
                    "indices": "accessor_88",
                    "material": "window_trim-effect",
                    "mode": 4
                }
            ]
        },
        "Wheels-mesh": {
            "name": "Wheels",
            "primitives": [
                {
                    "attributes": {
                        "NORMAL": "accessor_25",
                        "POSITION": "accessor_23",
                        "TEXCOORD_0": "accessor_27"
                    },
                    "indices": "accessor_21",
                    "material": "wheels-effect",
                    "mode": 4
                }
            ]
        }
    },
    "nodes": {
        "Cesium_Milk_Truck": {
            "children": [
                "Wheels",
                "Wheels__2_"
            ],
            "matrix": [
                1,
                0,
                0,
                0,
                0,
                0.00000000004489664195972409,
                1,
                0,
                0,
                -1,
                0.00000000004489664195972409,
                0,
                0,
                0,
                0,
                1
            ],
            "meshes": [
                "Cesium_Milk_Truck-mesh"
            ],
            "name": "Cesium_Milk_Truck"
        },
        "Wheels": {
            "children": [],
            "meshes": [
                "Wheels-mesh"
            ],
            "name": "Wheels",
            "rotation": [
                0,
                0,
                -0.08848576992750168,
                0.9960774183273315
            ],
            "scale": [
                1,
                1,
                1
            ],
            "translation": [
                1.432669997215271,
                0.4277220070362091,
                -0.0000000298022992950564
            ]
        },
        "Wheels__2_": {
            "children": [],
            "meshes": [
                "Wheels-mesh"
            ],
            "name": "Wheels__2_",
            "rotation": [
                0,
                0,
                -0.08848576992750168,
                0.9960774183273315
            ],
            "scale": [
                1,
                1,
                1
            ],
            "translation": [
                -1.352329969406128,
                0.4277220070362091,
                -0.0000000298022992950564
            ]
        },
        "node_3": {
            "children": [
                "Cesium_Milk_Truck"
            ],
            "matrix": [
                1,
                0,
                0,
                0,
                0,
                0,
                -1,
                0,
                0,
                1,
                0,
                0,
                0,
                0,
                0,
                1
            ],
            "name": "Y_UP_Transform"
        }
    },
    "programs": {
        "program_0": {
            "attributes": [
                "a_normal",
                "a_position"
            ],
            "fragmentShader": "truck_plus_iris_20FS",
            "vertexShader": "truck_plus_iris_20VS"
        },
        "program_1": {
            "attributes": [
                "a_normal",
                "a_position",
                "a_texcoord0"
            ],
            "fragmentShader": "truck_plus_iris_21FS",
            "vertexShader": "truck_plus_iris_21VS"
        }
    },
    "samplers": {
        "sampler_0": {
            "magFilter": 9729,
            "minFilter": 9729,
            "wrapS": 10497,
            "wrapT": 10497
        }
    },
    "scene": "defaultScene",
    "scenes": {
        "defaultScene": {
            "nodes": [
                "node_3"
            ]
        }
    },
    "shaders": {
        "truck_plus_iris_20FS": {
            "type": 35632,
            "uri": "data:text/plain;base64,"
        },
        "truck_plus_iris_20VS": {
            "type": 35633,
            "uri": "data:text/plain;base64,"
        },
        "truck_plus_iris_21FS": {
            "type": 35632,
            "uri": "data:text/plain;base64,"
        },
        "truck_plus_iris_21VS": {
            "type": 35633,
            "uri": "data:text/plain;base64,"
        }
    },
    "skins": {},
    "techniques": {
        "technique0": {
            "attributes": {
                "a_normal": "normal",
                "a_position": "position"
            },
            "parameters": {
                "ambient": {
                    "type": 35666
                },
                "diffuse": {
                    "type": 35666
                },
                "emission": {
                    "type": 35666
                },
                "modelViewMatrix": {
                    "semantic": "MODELVIEW",
                    "type": 35676
                },
                "normal": {
                    "semantic": "NORMAL",
                    "type": 35665
                },
                "normalMatrix": {
                    "semantic": "MODELVIEWINVERSETRANSPOSE",
                    "type": 35675
                },
                "position": {
                    "semantic": "POSITION",
                    "type": 35665
                },
                "projectionMatrix": {
                    "semantic": "PROJECTION",
                    "type": 35676
                },
                "shininess": {
                    "type": 5126
                },
                "specular": {
                    "type": 35666
                }
            },
            "program": "program_0",
            "states": {
                "enable": [
                    2929,
                    2884
                ]
            },
            "uniforms": {
                "u_ambient": "ambient",
                "u_diffuse": "diffuse",
                "u_emission": "emission",
                "u_modelViewMatrix": "modelViewMatrix",
                "u_normalMatrix": "normalMatrix",
                "u_projectionMatrix": "projectionMatrix",
                "u_shininess": "shininess",
                "u_specular": "specular"
            }
        },
        "technique1": {
            "attributes": {
                "a_normal": "normal",
                "a_position": "position",
                "a_texcoord0": "texcoord0"
            },
            "parameters": {
                "ambient": {
                    "type": 35666
                },
                "diffuse": {
                    "type": 35678
                },
                "emission": {
                    "type": 35666
                },
                "modelViewMatrix": {
                    "semantic": "MODELVIEW",
                    "type": 35676
                },
                "normal": {
                    "semantic": "NORMAL",
                    "type": 35665
                },
                "normalMatrix": {
                    "semantic": "MODELVIEWINVERSETRANSPOSE",
                    "type": 35675
                },
                "position": {
                    "semantic": "POSITION",
                    "type": 35665
                },
                "projectionMatrix": {
                    "semantic": "PROJECTION",
                    "type": 35676
                },
                "shininess": {
                    "type": 5126
                },
                "specular": {
                    "type": 35666
                },
                "texcoord0": {
                    "semantic": "TEXCOORD_0",
                    "type": 35664
                }
            },
            "program": "program_1",
            "states": {
                "enable": [
                    2929,
                    2884
                ]
            },
            "uniforms": {
                "u_ambient": "ambient",
                "u_diffuse": "diffuse",
                "u_emission": "emission",
                "u_modelViewMatrix": "modelViewMatrix",
                "u_normalMatrix": "normalMatrix",
                "u_projectionMatrix": "projectionMatrix",
                "u_shininess": "shininess",
                "u_specular": "specular"
            }
        }
    },
    "textures": {
        "texture_ubpsTruck_png": {
            "format": 6408,
            "internalFormat": 6408,
            "sampler": "sampler_0",
            "source": "ubpsTruck_png",
            "target": 3553,
            "type": 5121
        }
    }
}